Coordinates
version=1
nRows=60
nColumns=12
inDegrees=yes

Units are S.I. units (second, meters, Newtons, ...)
Angles are in degrees

endheader
time	SC_y	SC_z	SC_x	AC_y	AC_z	AC_x	GH_y	GH_z	GH_yy	EL_x	PS_y
       0.0              -40.23         -2.539          50.24          48.79         -10.82         -19.92         -39.99         -9.169         -104.9          116.5          52.16
   0.03045              -40.23         -2.533          50.23          48.79         -10.82         -19.91         -39.97         -9.162         -104.9          116.5          52.15
    0.0609              -40.23         -2.526          50.23          48.79         -10.82         -19.91         -39.94         -9.155         -104.9          116.5          52.14
   0.09134              -40.23         -2.519          50.23          48.78         -10.82         -19.91         -39.92         -9.148         -104.9          116.5          52.14
    0.1218              -40.22         -2.512          50.22          48.78         -10.82         -19.91          -39.9          -9.14         -104.9          116.5          52.13
    0.1522              -40.22         -2.504          50.22          48.78         -10.81         -19.91         -39.87         -9.132         -104.8          116.5          52.12
    0.1827              -40.22         -2.496          50.21          48.78         -10.81         -19.91         -39.84         -9.123         -104.8          116.5          52.11
    0.2131              -40.22         -2.487           50.2          48.77         -10.81         -19.91         -39.81         -9.114         -104.8          116.5           52.1
    0.2436              -40.22         -2.477           50.2          48.77         -10.81          -19.9         -39.78         -9.104         -104.8          116.5          52.09
     0.274              -40.22         -2.467          50.19          48.77         -10.81          -19.9         -39.75         -9.093         -104.8          116.5          52.08
    0.3045              -40.21         -2.456          50.18          48.76         -10.81          -19.9         -39.71         -9.082         -104.8          116.5          52.07
    0.3349              -40.21         -2.444          50.18          48.76          -10.8          -19.9         -39.67         -9.069         -104.8          116.4          52.06
    0.3654              -40.21         -2.431          50.17          48.76          -10.8         -19.89         -39.63         -9.056         -104.8          116.4          52.04
    0.3958              -40.21         -2.418          50.16          48.75          -10.8         -19.89         -39.58         -9.041         -104.7          116.4          52.03
    0.4263               -40.2         -2.403          50.15          48.75          -10.8         -19.89         -39.54         -9.025         -104.7          116.4          52.01
    0.4567               -40.2         -2.386          50.14          48.74         -10.79         -19.89         -39.48         -9.008         -104.7          116.4           52.0
    0.4872               -40.2         -2.369          50.13          48.74         -10.79         -19.88         -39.42          -8.99         -104.7          116.4          51.98
    0.5176               -40.2          -2.35          50.11          48.73         -10.79         -19.88         -39.36          -8.97         -104.7          116.4          51.96
    0.5481              -40.19         -2.329           50.1          48.72         -10.78         -19.87         -39.29         -8.948         -104.6          116.4          51.94
    0.5785              -40.19         -2.306          50.09          48.72         -10.78         -19.87         -39.22         -8.923         -104.6          116.4          51.91
     0.609              -40.18          -2.28          50.07          48.71         -10.77         -19.87         -39.13         -8.897         -104.6          116.4          51.89
    0.6394              -40.18         -2.253          50.05           48.7         -10.77         -19.86         -39.04         -8.868         -104.5          116.3          51.86
    0.6698              -40.17         -2.222          50.03          48.69         -10.76         -19.85         -38.94         -8.836         -104.5          116.3          51.82
    0.7003              -40.17         -2.188          50.01          48.68         -10.75         -19.85         -38.83           -8.8         -104.5          116.3          51.79
    0.7307              -40.16          -2.15          49.98          48.67         -10.75         -19.84          -38.7          -8.76         -104.4          116.3          51.75
    0.7612              -40.15         -2.108          49.96          48.66         -10.74         -19.83         -38.56         -8.716         -104.4          116.3          51.71
    0.7916              -40.14         -2.061          49.93          48.64         -10.73         -19.82         -38.41         -8.667         -104.3          116.3          51.66
    0.8221              -40.13         -2.008          49.89          48.62         -10.72         -19.81         -38.23         -8.611         -104.2          116.2           51.6
    0.8525              -40.12         -1.948          49.85          48.61         -10.71          -19.8         -38.03         -8.548         -104.2          116.2          51.54
     0.883              -40.11          -1.88          49.81          48.59          -10.7         -19.79         -37.81         -8.476         -104.1          116.2          51.47
    0.9134               -40.1         -1.803          49.76          48.56         -10.68         -19.77         -37.55         -8.395         -104.0          116.1          51.38
    0.9439              -40.08         -1.713           49.7          48.53         -10.67         -19.75         -37.26         -8.301         -103.9          116.1          51.29
    0.9743              -40.06         -1.611          49.63           48.5         -10.65         -19.73         -36.92         -8.193         -103.7          116.0          51.18
     1.005              -40.04         -1.491          49.55          48.46         -10.62         -19.71         -36.52         -8.067         -103.6          116.0          51.06
     1.035              -40.02         -1.351          49.46          48.42          -10.6         -19.68         -36.06          -7.92         -103.4          115.9          50.91
     1.066              -39.99         -1.186          49.35          48.37         -10.57         -19.65         -35.51         -7.746         -103.2          115.8          50.74
     1.096              -39.95        -0.9902          49.22          48.31         -10.53         -19.61         -34.87          -7.54         -103.0          115.7          50.53
     1.127              -39.91        -0.7553          49.07          48.24         -10.49         -19.57         -34.09         -7.293         -102.7          115.6          50.28
     1.157              -39.86         -0.471          48.88          48.15         -10.43         -19.51         -33.15         -6.995         -102.3          115.4          49.99
     1.187               -39.8        -0.1238          48.66          48.04         -10.37         -19.45          -32.0         -6.629         -101.9          115.2          49.62
     1.218              -39.73         0.3047          48.37          47.91         -10.29         -19.36         -30.59         -6.179         -101.4          115.0          49.17
     1.248              -39.63          0.839          48.02          47.74         -10.19         -19.26         -28.82         -5.617         -100.7          114.7          48.61
     1.279              -39.51          1.512          47.58          47.53         -10.06         -19.13          -26.6         -4.909         -99.88          114.4           47.9
     1.309              -39.36          2.368          47.02          47.27           -9.9         -18.96         -23.77          -4.01         -98.82          113.9           47.0
      1.34              -39.17          3.463           46.3          46.93         -9.695         -18.75         -20.15         -2.858         -97.47          113.4          45.85
      1.37              -38.92          4.869          45.38          46.49         -9.431         -18.48          -15.5          -1.38         -95.73          112.7          44.38
     1.401               -38.6          6.664          44.21          45.94         -9.094         -18.13         -9.565         0.5074         -93.51          111.7          42.49
     1.431               -38.2          8.922          42.73          45.24         -8.671         -17.69         -2.103          2.881         -90.72          110.5          40.12
     1.461              -37.71          11.67          40.92          44.38         -8.155         -17.15          6.991          5.773         -87.32          109.1          37.23
     1.492              -37.15          14.86          38.83           43.4         -7.557         -16.53          17.53          9.126         -83.38          107.5          33.88
     1.522              -36.53          18.31          36.57          42.33         -6.909         -15.86          28.94          12.76         -79.11          105.7          30.26
     1.553              -35.92          21.77           34.3          41.26         -6.261         -15.19          40.36          16.39         -74.84          103.9          26.63
     1.583              -35.36          24.96          32.21          40.27         -5.663         -14.57           50.9          19.74          -70.9          102.2          23.28
     1.614              -34.87          27.71          30.41          39.41         -5.147         -14.04          59.99          22.63          -67.5          100.8          20.39
     1.644              -34.47          29.96          28.93          38.72         -4.724          -13.6          67.45          25.01         -64.71          99.62          18.02
     1.675              -34.15          31.76          27.75          38.16         -4.387         -13.25          73.39          26.89         -62.49          98.69          16.14
     1.705               -33.9          33.17          26.83          37.72         -4.123         -12.98          78.04          28.37         -60.75          97.96          14.66
     1.736              -33.71          34.26          26.11          37.38         -3.918         -12.77          81.66          29.52          -59.4          97.39          13.51
     1.766              -33.56          35.12          25.55          37.12         -3.757          -12.6          84.48          30.42         -58.34          96.94          12.61
     1.796              -33.44          35.79          25.11          36.91         -3.631         -12.47          86.71          31.13         -57.51          96.59          11.91
